<svg aria-hidden="true" style="position: absolute; width: 0; height: 0; overflow: hidden;" version="1.1"
	xmlns="http://www.w3.org/2000/svg" xmlns:xlink="http://www.w3.org/1999/xlink">

	<defs>
		<symbol fill="none" xmlns="http://www.w3.org/2000/svg" id="fb">
			<path d="M30.0781 3.82812H4.92188C4.31689 3.82812 3.82812 4.31689 3.82812 4.92188V30.0781C3.82812 30.6831 4.31689 31.1719 4.92188 31.1719H30.0781C30.6831 31.1719 31.1719 30.6831 31.1719 30.0781V4.92188C31.1719 4.31689 30.6831 3.82812 30.0781 3.82812ZM26.9199 11.8091H24.7358C23.0234 11.8091 22.6919 12.6226 22.6919 13.8188V16.4541H26.7798L26.2466 20.5796H22.6919V31.1719H18.4297V20.583H14.8647V16.4541H18.4297V13.4121C18.4297 9.88135 20.5864 7.95703 23.7378 7.95703C25.2485 7.95703 26.5439 8.06982 26.9233 8.12109V11.8091H26.9199Z" fill="#F5F5F5"/>
		</symbol>
		<symbol fill="none" xmlns="http://www.w3.org/2000/svg" id="insta">
			<path fill-rule="evenodd" clip-rule="evenodd" d="M10.8865 1.55456C12.5971 1.47581 13.1425 1.45831 17.5 1.45831C21.8575 1.45831 22.4029 1.47727 24.1121 1.55456C25.8213 1.63185 26.9879 1.90456 28.0088 2.29977C29.0777 2.70373 30.0475 3.33519 30.8496 4.15185C31.6663 4.95248 32.2963 5.92081 32.6988 6.99123C33.0954 8.01206 33.3667 9.17873 33.4454 10.885C33.5242 12.5985 33.5417 13.1439 33.5417 17.5C33.5417 21.8575 33.5227 22.4029 33.4454 24.1135C33.3681 25.8198 33.0954 26.9864 32.6988 28.0073C32.2963 29.0778 31.6652 30.0478 30.8496 30.8496C30.0475 31.6662 29.0777 32.2962 28.0088 32.6987C26.9879 33.0954 25.8213 33.3666 24.115 33.4454C22.4029 33.5241 21.8575 33.5416 17.5 33.5416C13.1425 33.5416 12.5971 33.5227 10.8865 33.4454C9.18022 33.3681 8.01355 33.0954 6.99272 32.6987C5.92219 32.2962 4.95225 31.6651 4.15043 30.8496C3.33431 30.0485 2.70276 29.079 2.2998 28.0087C1.90459 26.9879 1.63334 25.8212 1.55459 24.115C1.47584 22.4014 1.45834 21.856 1.45834 17.5C1.45834 13.1425 1.4773 12.5971 1.55459 10.8879C1.63189 9.17873 1.90459 8.01206 2.2998 6.99123C2.70336 5.92093 3.33539 4.95148 4.15189 4.1504C4.95257 3.33446 5.92153 2.70292 6.99126 2.29977C8.01209 1.90456 9.17876 1.63331 10.885 1.55456H10.8865ZM23.9823 4.44206C22.2906 4.36477 21.7831 4.34873 17.5 4.34873C13.2169 4.34873 12.7094 4.36477 11.0177 4.44206C9.45293 4.51352 8.60418 4.77456 8.03834 4.99477C7.29022 5.28644 6.75501 5.63206 6.19355 6.19352C5.66133 6.71131 5.25173 7.34164 4.9948 8.03831C4.77459 8.60415 4.51355 9.4529 4.44209 11.0177C4.3648 12.7094 4.34876 13.2169 4.34876 17.5C4.34876 21.7831 4.3648 22.2906 4.44209 23.9823C4.51355 25.5471 4.77459 26.3958 4.9948 26.9617C5.25147 27.6573 5.66126 28.2887 6.19355 28.8064C6.71126 29.3387 7.34272 29.7485 8.03834 30.0052C8.60418 30.2254 9.45293 30.4864 11.0177 30.5579C12.7094 30.6352 13.2154 30.6512 17.5 30.6512C21.7846 30.6512 22.2906 30.6352 23.9823 30.5579C25.5471 30.4864 26.3958 30.2254 26.9617 30.0052C27.7098 29.7135 28.245 29.3679 28.8065 28.8064C29.3388 28.2887 29.7486 27.6573 30.0052 26.9617C30.2254 26.3958 30.4865 25.5471 30.5579 23.9823C30.6352 22.2906 30.6513 21.7831 30.6513 17.5C30.6513 13.2169 30.6352 12.7094 30.5579 11.0177C30.4865 9.4529 30.2254 8.60415 30.0052 8.03831C29.7136 7.29019 29.3679 6.75498 28.8065 6.19352C28.2887 5.66133 27.6583 5.25175 26.9617 4.99477C26.3958 4.77456 25.5471 4.51352 23.9823 4.44206V4.44206ZM15.4511 22.4452C16.5953 22.9215 17.8695 22.9858 19.056 22.6271C20.2424 22.2683 21.2675 21.5088 21.9561 20.4783C22.6448 19.4477 22.9543 18.21 22.8317 16.9766C22.7092 15.7432 22.1623 14.5906 21.2844 13.7156C20.7247 13.1563 20.048 12.728 19.303 12.4617C18.558 12.1953 17.7631 12.0974 16.9757 12.175C16.1883 12.2527 15.4279 12.504 14.7493 12.9108C14.0707 13.3176 13.4907 13.8698 13.0511 14.5277C12.6115 15.1855 12.3232 15.9327 12.207 16.7153C12.0908 17.498 12.1496 18.2967 12.3791 19.0539C12.6087 19.8111 13.0032 20.508 13.5344 21.0944C14.0656 21.6808 14.7202 22.1421 15.4511 22.4452ZM11.6696 11.6696C12.4353 10.9039 13.3442 10.2965 14.3446 9.88217C15.345 9.4678 16.4172 9.25453 17.5 9.25453C18.5828 9.25453 19.655 9.4678 20.6554 9.88217C21.6558 10.2965 22.5648 10.9039 23.3304 11.6696C24.0961 12.4352 24.7034 13.3442 25.1178 14.3446C25.5322 15.345 25.7455 16.4172 25.7455 17.5C25.7455 18.5828 25.5322 19.655 25.1178 20.6554C24.7034 21.6558 24.0961 22.5647 23.3304 23.3304C21.7841 24.8767 19.6868 25.7454 17.5 25.7454C15.3132 25.7454 13.2159 24.8767 11.6696 23.3304C10.1233 21.7841 9.25456 19.6868 9.25456 17.5C9.25456 15.3132 10.1233 13.2159 11.6696 11.6696V11.6696ZM27.5742 10.4825C27.7639 10.3035 27.9158 10.0883 28.0209 9.84953C28.1259 9.61079 28.182 9.35339 28.1858 9.09259C28.1896 8.83178 28.1411 8.57286 28.043 8.33116C27.945 8.08946 27.7994 7.86989 27.615 7.68545C27.4305 7.50102 27.211 7.35546 26.9692 7.2574C26.7275 7.15934 26.4686 7.11078 26.2078 7.11458C25.947 7.11838 25.6896 7.17448 25.4509 7.27954C25.2121 7.3846 24.9969 7.53649 24.8179 7.72623C24.4698 8.09523 24.2793 8.58537 24.2867 9.09259C24.2941 9.59981 24.4988 10.0842 24.8575 10.4429C25.2162 10.8016 25.7006 11.0064 26.2078 11.0138C26.715 11.0211 27.2052 10.8306 27.5742 10.4825V10.4825Z" fill="#F5F5F5"/>
		</symbol>
		<symbol fill="none" xmlns="http://www.w3.org/2000/svg" id="in">
			<path fill-rule="evenodd" clip-rule="evenodd" d="M1.45831 4.13873C1.45831 3.42784 1.74071 2.74607 2.24339 2.24339C2.74606 1.74072 3.42784 1.45832 4.13873 1.45832H30.8583C31.2106 1.45774 31.5596 1.52666 31.8852 1.66112C32.2108 1.79559 32.5067 1.99296 32.756 2.24193C33.0052 2.49091 33.2029 2.7866 33.3377 3.11208C33.4725 3.43756 33.5418 3.78644 33.5416 4.13873V30.8583C33.542 31.2107 33.4729 31.5597 33.3383 31.8853C33.2037 32.2109 33.0062 32.5068 32.7571 32.7561C32.508 33.0053 32.2122 33.203 31.8866 33.3378C31.5611 33.4726 31.2121 33.5418 30.8598 33.5416H4.13873C3.78661 33.5416 3.43794 33.4723 3.11264 33.3375C2.78734 33.2027 2.49179 33.0051 2.24287 32.7561C1.99395 32.507 1.79655 32.2113 1.66193 31.886C1.52731 31.5606 1.45812 31.2119 1.45831 30.8598V4.13873ZM14.1575 13.6908H18.5019V15.8725C19.1289 14.6183 20.7331 13.4896 23.1437 13.4896C27.7652 13.4896 28.8604 15.9877 28.8604 20.5712V29.0616H24.1835V21.6154C24.1835 19.005 23.5564 17.5321 21.9639 17.5321C19.7546 17.5321 18.8358 19.1202 18.8358 21.6154V29.0616H14.1575V13.6908ZM6.13665 28.8619H10.815V13.4896H6.13665V28.8604V28.8619ZM11.4844 8.47582C11.4932 8.87638 11.4219 9.27467 11.2747 9.64732C11.1275 10.02 10.9074 10.3595 10.6272 10.6459C10.347 10.9323 10.0125 11.1598 9.64314 11.3152C9.27383 11.4706 8.8772 11.5506 8.47654 11.5506C8.07588 11.5506 7.67926 11.4706 7.30994 11.3152C6.94063 11.1598 6.60607 10.9323 6.32589 10.6459C6.04572 10.3595 5.82557 10.02 5.67838 9.64732C5.53119 9.27467 5.45991 8.87638 5.46873 8.47582C5.48604 7.68956 5.81054 6.94135 6.37273 6.3914C6.93492 5.84146 7.6901 5.53351 8.47654 5.53351C9.26299 5.53351 10.0182 5.84146 10.5804 6.3914C11.1425 6.94135 11.467 7.68956 11.4844 8.47582Z" fill="#F5F5F5"/>
		</symbol>
		<symbol fill="none" xmlns="http://www.w3.org/2000/svg" id="header-logo">
			<path d="M71.25 52.5V28.125L52.5 15L33.75 28.125V33.75H26.25V24.375L52.5 5.625L78.75 24.375V52.5H71.25ZM54.375 30H58.125V26.25H54.375V30ZM46.875 30H50.625V26.25H46.875V30ZM54.375 37.5H58.125V33.75H54.375V37.5ZM46.875 37.5H50.625V33.75H46.875V37.5ZM52.5 84.375L26.25 77.0625V82.5H3.75V41.25H33.5625L56.8125 49.875C58.875 50.625 60.5475 51.9375 61.83 53.8125C63.11 55.6875 63.75 57.75 63.75 60H71.25C74.375 60 77.0312 61.0313 79.2188 63.0938C81.4062 65.1563 82.5 67.875 82.5 71.25V75L52.5 84.375ZM11.25 75H18.75V48.75H11.25V75ZM52.3125 76.5L74.625 69.5625C74.4375 68.875 74.015 68.3587 73.3575 68.0137C72.7025 67.6712 72 67.5 71.25 67.5H53.25C51.3125 67.5 49.5625 67.375 48 67.125C46.4375 66.875 44.75 66.4375 42.9375 65.8125L36.4688 63.5625L38.625 56.4375L46.125 58.875C47.25 59.25 48.5625 59.5312 50.0625 59.7188C51.5625 59.9062 53.625 60 56.25 60C56.25 59.3125 56.0475 58.6562 55.6425 58.0312C55.235 57.4062 54.75 57 54.1875 56.8125L32.25 48.75H26.25V69.375L52.3125 76.5Z" fill="black"/>
			<path d="M107.408 46C106.64 46 106.053 45.8827 105.648 45.648C105.243 45.392 104.955 44.976 104.784 44.4C104.613 43.8027 104.528 42.9493 104.528 41.84V24.88H108.688V41.84C108.688 42.928 108.837 43.7387 109.136 44.272C109.435 44.784 110.032 45.04 110.928 45.04H111.248V46H107.408ZM114.919 35.12C114.919 34.032 114.769 33.232 114.471 32.72C114.193 32.1867 113.607 31.92 112.711 31.92H112.391V30.96H115.559C116.284 30.96 116.849 31.056 117.255 31.248C117.681 31.4187 118.012 31.7173 118.247 32.144C119.335 31.1413 120.892 30.64 122.919 30.64C124.945 30.64 126.46 31.12 127.463 32.08C128.487 33.0187 128.999 34.5013 128.999 36.528V46H124.839V36.496C124.839 35.024 124.561 33.9467 124.007 33.264C123.473 32.5813 122.737 32.24 121.799 32.24C121.137 32.24 120.551 32.336 120.039 32.528C119.548 32.6987 119.153 32.9333 118.855 33.232L118.951 33.68C119.036 33.936 119.079 34.352 119.079 34.928V46H114.919V35.12ZM133.965 35.12C133.965 34.032 133.816 33.232 133.517 32.72C133.24 32.1867 132.653 31.92 131.757 31.92H131.437V30.96H134.605C135.992 30.96 136.898 31.3653 137.325 32.176H137.453C138.626 31.152 139.97 30.64 141.485 30.64C142.53 30.64 143.437 30.8427 144.205 31.248C144.994 31.632 145.56 32.0373 145.901 32.464C146.413 31.9093 147.021 31.472 147.725 31.152C148.429 30.8107 149.336 30.64 150.445 30.64C154.178 30.64 156.045 32.6027 156.045 36.528V46H151.885V36.496C151.885 35.024 151.65 33.9467 151.181 33.264C150.712 32.5813 150.093 32.24 149.325 32.24C148.749 32.24 148.216 32.3573 147.725 32.592C147.234 32.8053 146.85 33.0933 146.573 33.456C146.616 33.5413 146.701 33.776 146.829 34.16C147 34.8 147.085 35.5893 147.085 36.528V46H142.925V36.496C142.925 35.024 142.69 33.9467 142.221 33.264C141.752 32.5813 141.133 32.24 140.365 32.24C139.917 32.24 139.448 32.3787 138.957 32.656C138.488 32.912 138.136 33.2 137.901 33.52L137.997 33.968C138.082 34.224 138.125 34.64 138.125 35.216V46H133.965V35.12ZM167.314 46.32C165.757 46.32 164.392 45.9787 163.218 45.296C162.066 44.592 161.181 43.6533 160.562 42.48C159.944 41.2853 159.634 39.952 159.634 38.48C159.634 37.008 159.944 35.6853 160.562 34.512C161.181 33.3173 162.066 32.3787 163.218 31.696C164.392 30.992 165.757 30.64 167.314 30.64C168.872 30.64 170.226 30.992 171.378 31.696C172.552 32.3787 173.448 33.3173 174.066 34.512C174.685 35.6853 174.994 37.008 174.994 38.48C174.994 39.952 174.685 41.2853 174.066 42.48C173.448 43.6533 172.552 44.592 171.378 45.296C170.226 45.9787 168.872 46.32 167.314 46.32ZM167.314 44.88C168.402 44.88 169.234 44.2933 169.81 43.12C170.386 41.9467 170.674 40.4 170.674 38.48C170.674 36.56 170.386 35.0133 169.81 33.84C169.234 32.6667 168.402 32.08 167.314 32.08C166.226 32.08 165.394 32.6667 164.818 33.84C164.242 35.0133 163.954 36.56 163.954 38.48C163.954 40.4 164.242 41.9467 164.818 43.12C165.394 44.2933 166.226 44.88 167.314 44.88ZM186.379 46.32C185.227 46.32 184.288 46.032 183.563 45.456C183.2 45.2 182.912 44.9013 182.699 44.56H182.539L181.419 46H178.699V29.04C178.699 27.952 178.549 27.152 178.251 26.64C177.952 26.1067 177.355 25.84 176.459 25.84H176.139V24.88H179.979C180.747 24.88 181.333 25.008 181.739 25.264C182.144 25.52 182.432 25.9467 182.603 26.544C182.773 27.12 182.859 27.952 182.859 29.04V31.6C183.136 31.4293 183.435 31.2693 183.755 31.12C184.629 30.8 185.451 30.64 186.219 30.64C188.437 30.64 190.133 31.376 191.307 32.848C192.501 34.2987 193.099 36.176 193.099 38.48C193.099 40.784 192.512 42.672 191.339 44.144C190.187 45.5947 188.533 46.32 186.379 46.32ZM185.739 44.88C186.784 44.88 187.552 44.304 188.043 43.152C188.533 42 188.779 40.4427 188.779 38.48C188.779 34.2133 187.712 32.08 185.579 32.08C184.96 32.08 184.309 32.24 183.627 32.56C183.328 32.7307 183.072 32.8907 182.859 33.04V42.8C183.051 43.2267 183.285 43.5787 183.563 43.856C184.203 44.5387 184.928 44.88 185.739 44.88ZM199.527 29.232C198.759 29.232 198.161 28.9973 197.735 28.528C197.329 28.0587 197.127 27.4827 197.127 26.8C197.127 26.2453 197.287 25.808 197.607 25.488C197.948 25.168 198.375 25.008 198.887 25.008C199.655 25.008 200.241 25.2427 200.647 25.712C201.073 26.1813 201.287 26.7573 201.287 27.44C201.287 27.9947 201.116 28.432 200.775 28.752C200.455 29.072 200.039 29.232 199.527 29.232ZM197.447 35.12C197.447 34.032 197.297 33.232 196.999 32.72C196.7 32.1867 196.103 31.92 195.207 31.92H194.887V30.96H198.727C199.495 30.96 200.081 31.088 200.487 31.344C200.892 31.6 201.18 32.0267 201.351 32.624C201.521 33.2 201.607 34.032 201.607 35.12V46H197.447V35.12ZM206.7 29.04C206.7 27.952 206.551 27.152 206.252 26.64C205.954 26.1067 205.356 25.84 204.46 25.84H204.14V24.88H207.98C208.748 24.88 209.335 25.008 209.74 25.264C210.146 25.52 210.434 25.9467 210.604 26.544C210.775 27.12 210.86 27.952 210.86 29.04V46H206.7V29.04ZM218.151 29.232C217.383 29.232 216.785 28.9973 216.359 28.528C215.953 28.0587 215.751 27.4827 215.751 26.8C215.751 26.2453 215.911 25.808 216.231 25.488C216.572 25.168 216.999 25.008 217.511 25.008C218.279 25.008 218.865 25.2427 219.271 25.712C219.697 26.1813 219.911 26.7573 219.911 27.44C219.911 27.9947 219.74 28.432 219.399 28.752C219.079 29.072 218.663 29.232 218.151 29.232ZM216.071 35.12C216.071 34.032 215.921 33.232 215.623 32.72C215.324 32.1867 214.727 31.92 213.831 31.92H213.511V30.96H217.351C218.119 30.96 218.705 31.088 219.111 31.344C219.516 31.6 219.804 32.0267 219.975 32.624C220.145 33.2 220.231 34.032 220.231 35.12V46H216.071V35.12ZM229.082 46.32C227.354 46.32 226.01 45.936 225.05 45.168C224.111 44.3787 223.642 43.3227 223.642 42C223.642 40.9333 223.887 40.048 224.378 39.344C224.89 38.64 225.775 38.1067 227.034 37.744C228.292 37.3813 230.042 37.2 232.282 37.2H232.762C232.762 35.344 232.506 34.032 231.994 33.264C231.482 32.4747 230.724 32.08 229.722 32.08C228.89 32.08 228.207 32.2827 227.674 32.688C227.14 33.0933 226.756 33.8507 226.522 34.96H224.762C224.762 34.2347 224.804 33.616 224.89 33.104C224.996 32.592 225.22 32.144 225.562 31.76C226.223 31.0133 227.823 30.64 230.362 30.64C232.495 30.64 234.116 31.2053 235.226 32.336C236.356 33.4453 236.922 35.12 236.922 37.36V46H234.202L233.082 44.56H232.922C232.73 44.8587 232.431 45.1573 232.026 45.456C231.3 46.032 230.319 46.32 229.082 46.32ZM230.042 44.72C230.49 44.72 230.874 44.6347 231.194 44.464C231.514 44.272 231.823 44.016 232.122 43.696C232.399 43.3973 232.612 43.0453 232.762 42.64V38.64H232.282C230.767 38.64 229.668 38.9173 228.986 39.472C228.303 40.0053 227.962 40.848 227.962 42C227.962 42.8747 228.143 43.5467 228.506 44.016C228.868 44.4853 229.38 44.72 230.042 44.72ZM251.421 31.28C251.805 31.5573 252.082 31.8667 252.253 32.208C252.423 32.528 252.509 32.6987 252.509 32.72L250.877 33.968C250.727 33.776 250.535 33.5733 250.301 33.36C249.831 32.9333 249.287 32.72 248.669 32.72C247.431 32.72 246.482 33.0507 245.821 33.712L245.885 34.192C245.927 34.576 245.949 34.928 245.949 35.248V46H241.789V35.12C241.789 34.032 241.639 33.232 241.341 32.72C241.063 32.1867 240.477 31.92 239.581 31.92H239.261V30.96H242.429C243.154 30.96 243.719 31.056 244.125 31.248C244.551 31.4187 244.882 31.7173 245.117 32.144C246.269 31.1413 247.613 30.64 249.149 30.64C250.066 30.64 250.823 30.8533 251.421 31.28ZM257.852 29.232C257.084 29.232 256.486 28.9973 256.06 28.528C255.654 28.0587 255.452 27.4827 255.452 26.8C255.452 26.2453 255.612 25.808 255.932 25.488C256.273 25.168 256.7 25.008 257.212 25.008C257.98 25.008 258.566 25.2427 258.972 25.712C259.398 26.1813 259.612 26.7573 259.612 27.44C259.612 27.9947 259.441 28.432 259.1 28.752C258.78 29.072 258.364 29.232 257.852 29.232ZM255.772 35.12C255.772 34.032 255.622 33.232 255.324 32.72C255.025 32.1867 254.428 31.92 253.532 31.92H253.212V30.96H257.052C257.82 30.96 258.406 31.088 258.812 31.344C259.217 31.6 259.505 32.0267 259.676 32.624C259.846 33.2 259.932 34.032 259.932 35.12V46H255.772V35.12ZM268.783 46.32C267.055 46.32 265.711 45.936 264.751 45.168C263.812 44.3787 263.343 43.3227 263.343 42C263.343 40.9333 263.588 40.048 264.079 39.344C264.591 38.64 265.476 38.1067 266.735 37.744C267.994 37.3813 269.743 37.2 271.983 37.2H272.463C272.463 35.344 272.207 34.032 271.695 33.264C271.183 32.4747 270.426 32.08 269.423 32.08C268.591 32.08 267.908 32.2827 267.375 32.688C266.842 33.0933 266.458 33.8507 266.223 34.96H264.463C264.463 34.2347 264.506 33.616 264.591 33.104C264.698 32.592 264.922 32.144 265.263 31.76C265.924 31.0133 267.524 30.64 270.063 30.64C272.196 30.64 273.818 31.2053 274.927 32.336C276.058 33.4453 276.623 35.12 276.623 37.36V46H273.903L272.783 44.56H272.623C272.431 44.8587 272.132 45.1573 271.727 45.456C271.002 46.032 270.02 46.32 268.783 46.32ZM269.743 44.72C270.191 44.72 270.575 44.6347 270.895 44.464C271.215 44.272 271.524 44.016 271.823 43.696C272.1 43.3973 272.314 43.0453 272.463 42.64V38.64H271.983C270.468 38.64 269.37 38.9173 268.687 39.472C268.004 40.0053 267.663 40.848 267.663 42C267.663 42.8747 267.844 43.5467 268.207 44.016C268.57 44.4853 269.082 44.72 269.743 44.72ZM129.104 83.44C126.8 83.44 125.136 82.9067 124.112 81.84C123.109 80.752 122.608 78.992 122.608 76.56V65.232L115.6 82H114.544L105.968 64.592V82H104.368V60.88H108.272L116.016 76.592L122.576 60.88H126.768V76.56C126.768 78.5653 126.939 80.0373 127.28 80.976C127.621 81.9147 128.229 82.4693 129.104 82.64V83.44ZM136.508 82.32C134.78 82.32 133.436 81.936 132.476 81.168C131.537 80.3787 131.068 79.3227 131.068 78C131.068 76.9333 131.313 76.048 131.804 75.344C132.316 74.64 133.201 74.1067 134.46 73.744C135.719 73.3813 137.468 73.2 139.708 73.2H140.188C140.188 71.344 139.932 70.032 139.42 69.264C138.908 68.4747 138.151 68.08 137.148 68.08C136.316 68.08 135.633 68.2827 135.1 68.688C134.567 69.0933 134.183 69.8507 133.948 70.96H132.188C132.188 70.2347 132.231 69.616 132.316 69.104C132.423 68.592 132.647 68.144 132.988 67.76C133.649 67.0133 135.249 66.64 137.788 66.64C139.921 66.64 141.543 67.2053 142.652 68.336C143.783 69.4453 144.348 71.12 144.348 73.36V82H141.628L140.508 80.56H140.348C140.156 80.8587 139.857 81.1573 139.452 81.456C138.727 82.032 137.745 82.32 136.508 82.32ZM137.468 80.72C137.916 80.72 138.3 80.6347 138.62 80.464C138.94 80.272 139.249 80.016 139.548 79.696C139.825 79.3973 140.039 79.0453 140.188 78.64V74.64H139.708C138.193 74.64 137.095 74.9173 136.412 75.472C135.729 76.0053 135.388 76.848 135.388 78C135.388 78.8747 135.569 79.5467 135.932 80.016C136.295 80.4853 136.807 80.72 137.468 80.72ZM158.847 67.28C159.231 67.5573 159.508 67.8667 159.679 68.208C159.85 68.528 159.935 68.6987 159.935 68.72L158.303 69.968C158.154 69.776 157.962 69.5733 157.727 69.36C157.258 68.9333 156.714 68.72 156.095 68.72C154.858 68.72 153.908 69.0507 153.247 69.712L153.311 70.192C153.354 70.576 153.375 70.928 153.375 71.248V82H149.215V71.12C149.215 70.032 149.066 69.232 148.767 68.72C148.49 68.1867 147.903 67.92 147.007 67.92H146.687V66.96H149.855C150.58 66.96 151.146 67.056 151.551 67.248C151.978 67.4187 152.308 67.7173 152.543 68.144C153.695 67.1413 155.039 66.64 156.575 66.64C157.492 66.64 158.25 66.8533 158.847 67.28ZM167.902 82.32C166.43 82.32 165.289 81.9253 164.478 81.136C163.667 80.3253 163.262 79.1627 163.262 77.648V68.4H161.342V66.96H163.262V64.08L164.862 62.16H167.422V66.96H170.942V68.4H167.422V77.84C167.422 78.992 167.561 79.792 167.838 80.24C168.115 80.6667 168.531 80.88 169.086 80.88C169.683 80.88 170.281 80.7413 170.878 80.464C171.113 80.336 171.358 80.1867 171.614 80.016L172.062 80.912C171.785 81.1467 171.454 81.3813 171.07 81.616C170.174 82.0853 169.118 82.32 167.902 82.32ZM177.23 65.232C176.462 65.232 175.865 64.9973 175.438 64.528C175.033 64.0587 174.83 63.4827 174.83 62.8C174.83 62.2453 174.99 61.808 175.31 61.488C175.652 61.168 176.078 61.008 176.59 61.008C177.358 61.008 177.945 61.2427 178.35 61.712C178.777 62.1813 178.99 62.7573 178.99 63.44C178.99 63.9947 178.82 64.432 178.478 64.752C178.158 65.072 177.742 65.232 177.23 65.232ZM175.15 71.12C175.15 70.032 175.001 69.232 174.702 68.72C174.404 68.1867 173.806 67.92 172.91 67.92H172.59V66.96H176.43C177.198 66.96 177.785 67.088 178.19 67.344C178.596 67.6 178.884 68.0267 179.054 68.624C179.225 69.2 179.31 70.032 179.31 71.12V82H175.15V71.12ZM184.354 71.12C184.354 70.032 184.204 69.232 183.906 68.72C183.628 68.1867 183.042 67.92 182.146 67.92H181.826V66.96H184.994C185.719 66.96 186.284 67.056 186.69 67.248C187.116 67.4187 187.447 67.7173 187.682 68.144C188.77 67.1413 190.327 66.64 192.354 66.64C194.38 66.64 195.895 67.12 196.898 68.08C197.922 69.0187 198.434 70.5013 198.434 72.528V82H194.274V72.496C194.274 71.024 193.996 69.9467 193.442 69.264C192.908 68.5813 192.172 68.24 191.234 68.24C190.572 68.24 189.986 68.336 189.474 68.528C188.983 68.6987 188.588 68.9333 188.29 69.232L188.386 69.68C188.471 69.936 188.514 70.352 188.514 70.928V82H184.354V71.12ZM209.384 82.32C207.912 82.32 206.621 81.9787 205.512 81.296C204.403 80.6133 203.539 79.6853 202.92 78.512C202.323 77.3173 202.024 75.9733 202.024 74.48C202.024 72.816 202.323 71.3973 202.92 70.224C203.539 69.0507 204.381 68.1653 205.448 67.568C206.515 66.9493 207.72 66.64 209.064 66.64C210.387 66.64 211.581 66.9067 212.648 67.44C213.715 67.9733 214.557 68.7307 215.176 69.712C215.795 70.672 216.104 71.7813 216.104 73.04C216.104 73.4453 216.083 73.904 216.04 74.416L215.976 75.056H206.344C206.344 77.0827 206.653 78.5653 207.272 79.504C207.891 80.4213 208.755 80.88 209.864 80.88C210.888 80.88 211.741 80.656 212.424 80.208C213.128 79.7387 213.8 79.0773 214.44 78.224L215.432 78.96C214.813 79.92 214.035 80.72 213.096 81.36C212.179 82 210.941 82.32 209.384 82.32ZM211.784 73.616C211.784 71.6107 211.549 70.192 211.08 69.36C210.611 68.5067 209.939 68.08 209.064 68.08C208.253 68.08 207.592 68.5173 207.08 69.392C206.589 70.2453 206.344 71.6533 206.344 73.616H211.784ZM219.009 81.008L227.425 68.4H223.649C222.305 68.4 221.356 68.6453 220.801 69.136C220.247 69.6053 219.969 70.3733 219.969 71.44H219.009V69.52C219.009 67.8133 219.916 66.96 221.729 66.96H233.121L224.033 80.56H232.449V82H219.009V81.008Z" fill="black"/>
		</symbol>
		<symbol fill="none" xmlns="http://www.w3.org/2000/svg" id="header-light-logo">
		<path d="M46.7084 35.4167V19.4375L34.4167 10.8333L22.125 19.4375V23.125H17.2084V16.9792L34.4167 4.6875L51.625 16.9792V35.4167H46.7084ZM35.6459 20.6667H38.1042V18.2083H35.6459V20.6667ZM30.7292 20.6667H33.1875V18.2083H30.7292V20.6667ZM35.6459 25.5833H38.1042V23.125H35.6459V25.5833ZM30.7292 25.5833H33.1875V23.125H30.7292V25.5833ZM34.4167 56.3125L17.2084 51.5187V55.0833H2.45837V28.0417H22.0021L37.2438 33.6958C38.5959 34.1875 39.6923 35.0479 40.533 36.2771C41.3722 37.5062 41.7917 38.8583 41.7917 40.3333H46.7084C48.757 40.3333 50.4983 41.0094 51.9323 42.3615C53.3664 43.7135 54.0834 45.4958 54.0834 47.7083V50.1667L34.4167 56.3125ZM7.37504 50.1667H12.2917V32.9583H7.37504V50.1667ZM34.2938 51.15L48.9209 46.6021C48.798 46.1514 48.521 45.813 48.09 45.5868C47.6606 45.3623 47.2 45.25 46.7084 45.25H34.9084C33.6382 45.25 32.491 45.1681 31.4667 45.0042C30.4424 44.8403 29.3362 44.5535 28.148 44.1437L23.9073 42.6688L25.3209 37.9979L30.2375 39.5958C30.975 39.8417 31.8355 40.026 32.8188 40.149C33.8021 40.2719 35.1542 40.3333 36.875 40.3333C36.875 39.8826 36.7423 39.4524 36.4768 39.0427C36.2097 38.633 35.8917 38.3667 35.523 38.2437L21.1417 32.9583H17.2084V46.4792L34.2938 51.15Z" fill="white" stroke="none"/>
		<path d="M73.732 25C73.06 25 72.5467 24.8973 72.192 24.692C71.8373 24.468 71.5853 24.104 71.436 23.6C71.2867 23.0773 71.212 22.3307 71.212 21.36V6.52H74.852V21.36C74.852 22.312 74.9827 23.0213 75.244 23.488C75.5053 23.936 76.028 24.16 76.812 24.16H77.092V25H73.732ZM80.3039 15.48C80.3039 14.528 80.1732 13.828 79.9119 13.38C79.6692 12.9133 79.1559 12.68 78.3719 12.68H78.0919V11.84H80.8639C81.4986 11.84 81.9932 11.924 82.3479 12.092C82.7212 12.2413 83.0106 12.5027 83.2159 12.876C84.1679 11.9987 85.5306 11.56 87.3039 11.56C89.0772 11.56 90.4026 11.98 91.2799 12.82C92.1759 13.6413 92.6239 14.9387 92.6239 16.712V25H88.9839V16.684C88.9839 15.396 88.7412 14.4533 88.2559 13.856C87.7892 13.2587 87.1452 12.96 86.3239 12.96C85.7452 12.96 85.2319 13.044 84.7839 13.212C84.3546 13.3613 84.0092 13.5667 83.7479 13.828L83.8319 14.22C83.9066 14.444 83.9439 14.808 83.9439 15.312V25H80.3039V15.48ZM96.9694 15.48C96.9694 14.528 96.8387 13.828 96.5774 13.38C96.3347 12.9133 95.8214 12.68 95.0374 12.68H94.7574V11.84H97.5294C98.7427 11.84 99.536 12.1947 99.9094 12.904H100.021C101.048 12.008 102.224 11.56 103.549 11.56C104.464 11.56 105.257 11.7373 105.929 12.092C106.62 12.428 107.115 12.7827 107.413 13.156C107.861 12.6707 108.393 12.288 109.009 12.008C109.625 11.7093 110.419 11.56 111.389 11.56C114.656 11.56 116.289 13.2773 116.289 16.712V25H112.649V16.684C112.649 15.396 112.444 14.4533 112.033 13.856C111.623 13.2587 111.081 12.96 110.409 12.96C109.905 12.96 109.439 13.0627 109.009 13.268C108.58 13.4547 108.244 13.7067 108.001 14.024C108.039 14.0987 108.113 14.304 108.225 14.64C108.375 15.2 108.449 15.8907 108.449 16.712V25H104.809V16.684C104.809 15.396 104.604 14.4533 104.193 13.856C103.783 13.2587 103.241 12.96 102.569 12.96C102.177 12.96 101.767 13.0813 101.337 13.324C100.927 13.548 100.619 13.8 100.413 14.08L100.497 14.472C100.572 14.696 100.609 15.06 100.609 15.564V25H96.9694V15.48ZM126.15 25.28C124.788 25.28 123.593 24.9813 122.566 24.384C121.558 23.768 120.784 22.9467 120.242 21.92C119.701 20.8747 119.43 19.708 119.43 18.42C119.43 17.132 119.701 15.9747 120.242 14.948C120.784 13.9027 121.558 13.0813 122.566 12.484C123.593 11.868 124.788 11.56 126.15 11.56C127.513 11.56 128.698 11.868 129.706 12.484C130.733 13.0813 131.517 13.9027 132.058 14.948C132.6 15.9747 132.87 17.132 132.87 18.42C132.87 19.708 132.6 20.8747 132.058 21.92C131.517 22.9467 130.733 23.768 129.706 24.384C128.698 24.9813 127.513 25.28 126.15 25.28ZM126.15 24.02C127.102 24.02 127.83 23.5067 128.334 22.48C128.838 21.4533 129.09 20.1 129.09 18.42C129.09 16.74 128.838 15.3867 128.334 14.36C127.83 13.3333 127.102 12.82 126.15 12.82C125.198 12.82 124.47 13.3333 123.966 14.36C123.462 15.3867 123.21 16.74 123.21 18.42C123.21 20.1 123.462 21.4533 123.966 22.48C124.47 23.5067 125.198 24.02 126.15 24.02ZM142.831 25.28C141.823 25.28 141.002 25.028 140.367 24.524C140.05 24.3 139.798 24.0387 139.611 23.74H139.471L138.491 25H136.111V10.16C136.111 9.208 135.981 8.508 135.719 8.06C135.458 7.59333 134.935 7.36 134.151 7.36H133.871V6.52H137.231C137.903 6.52 138.417 6.632 138.771 6.856C139.126 7.08 139.378 7.45333 139.527 7.976C139.677 8.48 139.751 9.208 139.751 10.16V12.4C139.994 12.2507 140.255 12.1107 140.535 11.98C141.301 11.7 142.019 11.56 142.691 11.56C144.633 11.56 146.117 12.204 147.143 13.492C148.189 14.7613 148.711 16.404 148.711 18.42C148.711 20.436 148.198 22.088 147.171 23.376C146.163 24.6453 144.717 25.28 142.831 25.28ZM142.271 24.02C143.186 24.02 143.858 23.516 144.287 22.508C144.717 21.5 144.931 20.1373 144.931 18.42C144.931 14.6867 143.998 12.82 142.131 12.82C141.59 12.82 141.021 12.96 140.423 13.24C140.162 13.3893 139.938 13.5293 139.751 13.66V22.2C139.919 22.5733 140.125 22.8813 140.367 23.124C140.927 23.7213 141.562 24.02 142.271 24.02ZM154.336 10.328C153.664 10.328 153.141 10.1227 152.768 9.712C152.413 9.30133 152.236 8.79733 152.236 8.2C152.236 7.71467 152.376 7.332 152.656 7.052C152.955 6.772 153.328 6.632 153.776 6.632C154.448 6.632 154.961 6.83733 155.316 7.248C155.689 7.65867 155.876 8.16267 155.876 8.76C155.876 9.24533 155.727 9.628 155.428 9.908C155.148 10.188 154.784 10.328 154.336 10.328ZM152.516 15.48C152.516 14.528 152.385 13.828 152.124 13.38C151.863 12.9133 151.34 12.68 150.556 12.68H150.276V11.84H153.636C154.308 11.84 154.821 11.952 155.176 12.176C155.531 12.4 155.783 12.7733 155.932 13.296C156.081 13.8 156.156 14.528 156.156 15.48V25H152.516V15.48ZM160.613 10.16C160.613 9.208 160.482 8.508 160.221 8.06C159.96 7.59333 159.437 7.36 158.653 7.36H158.373V6.52H161.733C162.405 6.52 162.918 6.632 163.273 6.856C163.628 7.08 163.88 7.45333 164.029 7.976C164.178 8.48 164.253 9.208 164.253 10.16V25H160.613V10.16ZM170.632 10.328C169.96 10.328 169.437 10.1227 169.064 9.712C168.709 9.30133 168.532 8.79733 168.532 8.2C168.532 7.71467 168.672 7.332 168.952 7.052C169.25 6.772 169.624 6.632 170.072 6.632C170.744 6.632 171.257 6.83733 171.612 7.248C171.985 7.65867 172.172 8.16267 172.172 8.76C172.172 9.24533 172.022 9.628 171.724 9.908C171.444 10.188 171.08 10.328 170.632 10.328ZM168.812 15.48C168.812 14.528 168.681 13.828 168.42 13.38C168.158 12.9133 167.636 12.68 166.852 12.68H166.572V11.84H169.932C170.604 11.84 171.117 11.952 171.472 12.176C171.826 12.4 172.078 12.7733 172.228 13.296C172.377 13.8 172.452 14.528 172.452 15.48V25H168.812V15.48ZM180.197 25.28C178.685 25.28 177.509 24.944 176.669 24.272C175.847 23.5813 175.437 22.6573 175.437 21.5C175.437 20.5667 175.651 19.792 176.081 19.176C176.529 18.56 177.303 18.0933 178.405 17.776C179.506 17.4587 181.037 17.3 182.997 17.3H183.417C183.417 15.676 183.193 14.528 182.745 13.856C182.297 13.1653 181.634 12.82 180.757 12.82C180.029 12.82 179.431 12.9973 178.965 13.352C178.498 13.7067 178.162 14.3693 177.957 15.34H176.417C176.417 14.7053 176.454 14.164 176.529 13.716C176.622 13.268 176.818 12.876 177.117 12.54C177.695 11.8867 179.095 11.56 181.317 11.56C183.183 11.56 184.602 12.0547 185.573 13.044C186.562 14.0147 187.057 15.48 187.057 17.44V25H184.677L183.697 23.74H183.557C183.389 24.0013 183.127 24.2627 182.773 24.524C182.138 25.028 181.279 25.28 180.197 25.28ZM181.037 23.88C181.429 23.88 181.765 23.8053 182.045 23.656C182.325 23.488 182.595 23.264 182.857 22.984C183.099 22.7227 183.286 22.4147 183.417 22.06V18.56H182.997C181.671 18.56 180.71 18.8027 180.113 19.288C179.515 19.7547 179.217 20.492 179.217 21.5C179.217 22.2653 179.375 22.8533 179.693 23.264C180.01 23.6747 180.458 23.88 181.037 23.88ZM199.743 12.12C200.079 12.3627 200.322 12.6333 200.471 12.932C200.62 13.212 200.695 13.3613 200.695 13.38L199.267 14.472C199.136 14.304 198.968 14.1267 198.763 13.94C198.352 13.5667 197.876 13.38 197.335 13.38C196.252 13.38 195.422 13.6693 194.843 14.248L194.899 14.668C194.936 15.004 194.955 15.312 194.955 15.592V25H191.315V15.48C191.315 14.528 191.184 13.828 190.923 13.38C190.68 12.9133 190.167 12.68 189.383 12.68H189.103V11.84H191.875C192.51 11.84 193.004 11.924 193.359 12.092C193.732 12.2413 194.022 12.5027 194.227 12.876C195.235 11.9987 196.411 11.56 197.755 11.56C198.558 11.56 199.22 11.7467 199.743 12.12ZM205.37 10.328C204.698 10.328 204.176 10.1227 203.802 9.712C203.448 9.30133 203.27 8.79733 203.27 8.2C203.27 7.71467 203.41 7.332 203.69 7.052C203.989 6.772 204.362 6.632 204.81 6.632C205.482 6.632 205.996 6.83733 206.35 7.248C206.724 7.65867 206.91 8.16267 206.91 8.76C206.91 9.24533 206.761 9.628 206.462 9.908C206.182 10.188 205.818 10.328 205.37 10.328ZM203.55 15.48C203.55 14.528 203.42 13.828 203.158 13.38C202.897 12.9133 202.374 12.68 201.59 12.68H201.31V11.84H204.67C205.342 11.84 205.856 11.952 206.21 12.176C206.565 12.4 206.817 12.7733 206.966 13.296C207.116 13.8 207.19 14.528 207.19 15.48V25H203.55V15.48ZM214.935 25.28C213.423 25.28 212.247 24.944 211.407 24.272C210.586 23.5813 210.175 22.6573 210.175 21.5C210.175 20.5667 210.39 19.792 210.819 19.176C211.267 18.56 212.042 18.0933 213.143 17.776C214.244 17.4587 215.775 17.3 217.735 17.3H218.155C218.155 15.676 217.931 14.528 217.483 13.856C217.035 13.1653 216.372 12.82 215.495 12.82C214.767 12.82 214.17 12.9973 213.703 13.352C213.236 13.7067 212.9 14.3693 212.695 15.34H211.155C211.155 14.7053 211.192 14.164 211.267 13.716C211.36 13.268 211.556 12.876 211.855 12.54C212.434 11.8867 213.834 11.56 216.055 11.56C217.922 11.56 219.34 12.0547 220.311 13.044C221.3 14.0147 221.795 15.48 221.795 17.44V25H219.415L218.435 23.74H218.295C218.127 24.0013 217.866 24.2627 217.511 24.524C216.876 25.028 216.018 25.28 214.935 25.28ZM215.775 23.88C216.167 23.88 216.503 23.8053 216.783 23.656C217.063 23.488 217.334 23.264 217.595 22.984C217.838 22.7227 218.024 22.4147 218.155 22.06V18.56H217.735C216.41 18.56 215.448 18.8027 214.851 19.288C214.254 19.7547 213.955 20.492 213.955 21.5C213.955 22.2653 214.114 22.8533 214.431 23.264C214.748 23.6747 215.196 23.88 215.775 23.88ZM92.716 57.26C90.7 57.26 89.244 56.7933 88.348 55.86C87.4707 54.908 87.032 53.368 87.032 51.24V41.328L80.9 56H79.976L72.472 40.768V56H71.072V37.52H74.488L81.264 51.268L87.004 37.52H90.672V51.24C90.672 52.9947 90.8213 54.2827 91.12 55.104C91.4187 55.9253 91.9507 56.4107 92.716 56.56V57.26ZM99.1945 56.28C97.6825 56.28 96.5065 55.944 95.6665 55.272C94.8452 54.5813 94.4345 53.6573 94.4345 52.5C94.4345 51.5667 94.6492 50.792 95.0785 50.176C95.5265 49.56 96.3012 49.0933 97.4025 48.776C98.5038 48.4587 100.034 48.3 101.995 48.3H102.414C102.414 46.676 102.19 45.528 101.743 44.856C101.294 44.1653 100.632 43.82 99.7545 43.82C99.0265 43.82 98.4292 43.9973 97.9625 44.352C97.4958 44.7067 97.1598 45.3693 96.9545 46.34H95.4145C95.4145 45.7053 95.4518 45.164 95.5265 44.716C95.6198 44.268 95.8158 43.876 96.1145 43.54C96.6932 42.8867 98.0932 42.56 100.314 42.56C102.181 42.56 103.6 43.0547 104.571 44.044C105.56 45.0147 106.055 46.48 106.055 48.44V56H103.675L102.694 54.74H102.554C102.386 55.0013 102.125 55.2627 101.77 55.524C101.136 56.028 100.277 56.28 99.1945 56.28ZM100.034 54.88C100.426 54.88 100.762 54.8053 101.042 54.656C101.322 54.488 101.593 54.264 101.854 53.984C102.097 53.7227 102.284 53.4147 102.414 53.06V49.56H101.995C100.669 49.56 99.7078 49.8027 99.1105 50.288C98.5132 50.7547 98.2145 51.492 98.2145 52.5C98.2145 53.2653 98.3732 53.8533 98.6905 54.264C99.0078 54.6747 99.4558 54.88 100.034 54.88ZM118.741 43.12C119.077 43.3627 119.32 43.6333 119.469 43.932C119.618 44.212 119.693 44.3613 119.693 44.38L118.265 45.472C118.134 45.304 117.966 45.1267 117.761 44.94C117.35 44.5667 116.874 44.38 116.333 44.38C115.25 44.38 114.42 44.6693 113.841 45.248L113.897 45.668C113.934 46.004 113.953 46.312 113.953 46.592V56H110.313V46.48C110.313 45.528 110.182 44.828 109.921 44.38C109.678 43.9133 109.165 43.68 108.381 43.68H108.101V42.84H110.873C111.508 42.84 112.002 42.924 112.357 43.092C112.73 43.2413 113.02 43.5027 113.225 43.876C114.233 42.9987 115.409 42.56 116.753 42.56C117.556 42.56 118.218 42.7467 118.741 43.12ZM126.664 56.28C125.376 56.28 124.378 55.9347 123.668 55.244C122.959 54.5347 122.604 53.5173 122.604 52.192V44.1H120.924V42.84H122.604V40.32L124.004 38.64H126.244V42.84H129.324V44.1H126.244V52.36C126.244 53.368 126.366 54.068 126.608 54.46C126.851 54.8333 127.215 55.02 127.7 55.02C128.223 55.02 128.746 54.8987 129.268 54.656C129.474 54.544 129.688 54.4133 129.912 54.264L130.304 55.048C130.062 55.2533 129.772 55.4587 129.436 55.664C128.652 56.0747 127.728 56.28 126.664 56.28ZM134.827 41.328C134.155 41.328 133.632 41.1227 133.259 40.712C132.904 40.3013 132.727 39.7973 132.727 39.2C132.727 38.7147 132.867 38.332 133.147 38.052C133.445 37.772 133.819 37.632 134.267 37.632C134.939 37.632 135.452 37.8373 135.807 38.248C136.18 38.6587 136.367 39.1627 136.367 39.76C136.367 40.2453 136.217 40.628 135.919 40.908C135.639 41.188 135.275 41.328 134.827 41.328ZM133.007 46.48C133.007 45.528 132.876 44.828 132.615 44.38C132.353 43.9133 131.831 43.68 131.047 43.68H130.767V42.84H134.127C134.799 42.84 135.312 42.952 135.667 43.176C136.021 43.4 136.273 43.7733 136.423 44.296C136.572 44.8 136.647 45.528 136.647 46.48V56H133.007V46.48ZM141.06 46.48C141.06 45.528 140.929 44.828 140.668 44.38C140.425 43.9133 139.912 43.68 139.128 43.68H138.848V42.84H141.62C142.254 42.84 142.749 42.924 143.104 43.092C143.477 43.2413 143.766 43.5027 143.972 43.876C144.924 42.9987 146.286 42.56 148.06 42.56C149.833 42.56 151.158 42.98 152.036 43.82C152.932 44.6413 153.38 45.9387 153.38 47.712V56H149.74V47.684C149.74 46.396 149.497 45.4533 149.012 44.856C148.545 44.2587 147.901 43.96 147.08 43.96C146.501 43.96 145.988 44.044 145.54 44.212C145.11 44.3613 144.765 44.5667 144.504 44.828L144.588 45.22C144.662 45.444 144.7 45.808 144.7 46.312V56H141.06V46.48ZM162.961 56.28C161.673 56.28 160.544 55.9813 159.573 55.384C158.602 54.7867 157.846 53.9747 157.305 52.948C156.782 51.9027 156.521 50.7267 156.521 49.42C156.521 47.964 156.782 46.7227 157.305 45.696C157.846 44.6693 158.584 43.8947 159.517 43.372C160.45 42.8307 161.505 42.56 162.681 42.56C163.838 42.56 164.884 42.7933 165.817 43.26C166.75 43.7267 167.488 44.3893 168.029 45.248C168.57 46.088 168.841 47.0587 168.841 48.16C168.841 48.5147 168.822 48.916 168.785 49.364L168.729 49.924H160.301C160.301 51.6973 160.572 52.9947 161.113 53.816C161.654 54.6187 162.41 55.02 163.381 55.02C164.277 55.02 165.024 54.824 165.621 54.432C166.237 54.0213 166.825 53.4427 167.385 52.696L168.253 53.34C167.712 54.18 167.03 54.88 166.209 55.44C165.406 56 164.324 56.28 162.961 56.28ZM165.061 48.664C165.061 46.9093 164.856 45.668 164.445 44.94C164.034 44.1933 163.446 43.82 162.681 43.82C161.972 43.82 161.393 44.2027 160.945 44.968C160.516 45.7147 160.301 46.9467 160.301 48.664H165.061ZM171.383 55.132L178.747 44.1H175.443C174.267 44.1 173.436 44.3147 172.951 44.744C172.466 45.1547 172.223 45.8267 172.223 46.76H171.383V45.08C171.383 43.5867 172.176 42.84 173.763 42.84H183.731L175.779 54.74H183.143V56H171.383V55.132Z" fill="white" stroke="none"/>
		</symbol>
	</defs>
</svg>